<svg xmlns="http://www.w3.org/2000/svg" viewBox="0 0 91 28"><path d="M80.145 11.71h6.464c-.345-2.092-1.509-3.137-3.145-3.137-1.637 0-2.918 1.163-3.319 3.136Zm3.61 9.935c-4.31 0-8.028-3.309-8.028-8.254 0-4.818 3.373-8.364 7.855-8.364 4.6 0 7.336 3.891 7.336 8.137 0 .463-.054 1.281-.118 1.627H80.146c.581 2.09 2.381 3.082 4.481 3.082 2.155 0 4.073-.7 5.764-1.746l.054.055-.99 4.018c-1.337.755-3.373 1.445-5.7 1.445ZM67.281 8.464c-1.864 0-2.964 1.627-2.964 3.427 0 1.745 1.11 3.373 2.964 3.373 1.864 0 2.972-1.628 2.972-3.373-.008-1.81-1.109-3.427-2.972-3.427Zm-.528 19.572c-2.563 0-4.772-.809-6.572-2.209l1.282-3.427h.054c1.627 1.336 3.2 2.036 5.182 2.036 2.21 0 3.61-1.163 3.61-2.727 0-1.627-1.283-2.79-3.556-2.79-1.981 0-3.318.526-4.536 1.1l-.054-.055.99-3.018c-1.863-1.1-2.963-3.019-2.963-5.291 0-3.546 2.854-6.628 7.218-6.628 1.573 0 2.445.291 3.555.291 1.863 0 3.554-.582 5.063-1.218h.055l-1.046 3.89-2.618-.235C73.873 8.973 74.4 10.373 74.4 12c0 1.745-1.046 3.718-3.2 4.818 2.21 1.046 3.49 2.727 3.49 5.055-.017 3.609-3.1 6.163-7.936 6.163Zm-13.5-14.99L50.4 6.018l-2.855 7.028h5.71ZM54.883 17h-8.964l-1.8 4.418h-4.654L48.709.036H52.2l9.255 21.382h-4.773L54.882 17ZM29.855 9.1c-2.5 0-4.137 1.682-4.137 4.245 0 2.382 1.628 4.246 4.191 4.246 1.918 0 3.9-1.455 3.9-4.246.01-2.5-1.8-4.245-3.954-4.245Zm3.963 10.282c-1.454 1.509-3.082 2.263-4.945 2.263-4.364 0-7.682-3.6-7.682-8.254 0-4.936 3.436-8.364 7.8-8.364 1.918 0 3.436.755 4.718 1.918V.036h4.427v21.382h-4.318v-2.036Zm-20.027-6.337-2.855-7.027-2.845 7.028h5.7ZM15.427 17H6.464l-1.8 4.418H0L9.255.036h3.49L22 21.418h-4.773L15.427 17Z" style="fill:#252422"/></svg>