<svg xmlns="http://www.w3.org/2000/svg" viewBox="0 0 427 200" style="fill:#252422"><path d="M175.678 144.948c0-23.72-12.949-41.995-45.868-41.995H94.592v83.991h35.218c32.919 0 45.868-18.275 45.868-41.996Zm-23.962 0c0 16.581-9.319 22.753-22.269 22.753h-11.981v-45.505h11.981c12.95 0 22.269 6.172 22.269 22.752Zm29.44 41.996h66.564v-19.122h-43.69V153.42h38.365v-18.153H204.03v-13.192h42.6v-19.122h-65.474v83.991Zm144.049-54.824c0-21.18-13.554-29.167-34.612-29.167h-36.429v83.991h22.873v-25.657h13.556c21.058 0 34.612-7.988 34.612-29.167Zm-23.721 0c0 8.23-3.872 11.619-13.191 11.619h-11.256v-23.238h11.256c9.319 0 13.191 3.389 13.191 11.619Zm26.217-9.561h26.505v64.385h22.873v-64.385h26.504v-19.606h-75.882v19.606ZM398.49 176.1c0 7.713 6.244 13.956 13.956 13.956 7.713 0 14.018-6.243 14.018-13.956 0-7.713-6.305-14.017-14.018-14.017-7.712 0-13.956 6.304-13.956 14.017Zm2.693 0c0-6.366 5.02-11.569 11.263-11.569 6.244 0 11.325 5.203 11.325 11.569 0 6.366-5.081 11.508-11.325 11.508-6.243 0-11.263-5.142-11.263-11.508Zm4.714 6.917h4.407v-4.774h2.51l2.632 4.774h4.774l-3.183-5.631c1.469-.613 2.571-2.265 2.571-4.102 0-3.244-2.081-4.774-5.631-4.774h-8.08v14.507Zm9.242-9.672c0 1.164-.734 1.653-2.142 1.653h-2.693v-3.06h2.693c1.408 0 2.142.367 2.142 1.407ZM4.493 85.723h42.011c19.792 0 31.326-8.378 31.326-24.527 0-10.078-6.07-16.27-14.934-19.185 7.042-3.4 12.142-9.349 12.142-19.184 0-12.628-8.014-21.37-27.077-21.37H4.493v84.266Zm47.11-58.403c0 5.828-3.642 8.62-11.656 8.62H27.441V18.7h12.506c8.257 0 11.657 2.792 11.657 8.62Zm2.793 32.419c0 5.95-3.764 8.742-11.899 8.742H27.441V50.875h15.056c8.135 0 11.9 2.793 11.9 8.864Zm87.921 25.984h24.041L137.096 1.457h-30.234L77.6 85.723h23.555l4.25-13.6h32.662l4.25 13.6Zm-20.52-65.81 10.563 34.119h-21.248l10.685-34.12Zm81.487 67.267c22.827 0 37.155-10.685 37.155-27.684 0-13.842-9.106-21.006-23.313-23.92l-18.213-3.764c-7.285-1.457-9.47-3.764-9.47-7.528 0-4.128 4.249-7.528 11.899-7.528 8.499 0 14.692 3.643 15.299 11.292h22.584C239.225 7.892 222.226 0 201.22 0c-20.155 0-34.847 10.078-34.847 26.47 0 13.842 9.106 21.005 23.312 23.92l18.213 3.764c7.286 1.456 9.471 3.763 9.471 7.527 0 5.343-5.221 8.379-13.477 8.379-9.35 0-16.149-4.857-16.635-13.6h-22.584c.485 18.942 13.356 30.72 38.611 30.72Zm43.741-1.457h22.948V1.457h-22.948v84.266Zm53.09-42.133c0-14.085 7.65-24.406 20.034-24.406 10.564 0 16.878 6.071 18.213 13.478h24.042C360.34 10.564 341.641 0 320.149 0c-27.926 0-44.197 17.363-44.197 43.59 0 26.227 16.271 43.59 44.197 43.59 21.492 0 40.312-10.564 42.376-32.662h-24.163c-1.335 7.406-7.649 13.477-18.213 13.477-12.384 0-20.034-10.32-20.034-24.405ZM54.639 100.07H35.94L0 200h18.577l36.062-99.929Z"/></svg>