<svg xmlns="http://www.w3.org/2000/svg" viewBox="0 0 115 33" style="fill:#252422"><path d="m53.704 29.992-4.14-.021.026-.263c.025-.249.053-.269.495-.357.613-.121 1.012-.43 1.207-.935.144-.374.153-.81.153-7.792 0-7.222-.004-7.402-.165-7.668-.177-.292-.715-.6-1.05-.6-.258 0-.406-.143-.406-.393 0-.227.182-.311 1.036-.48.322-.065 1.5-.308 2.62-.542 1.12-.234 2.158-.446 2.306-.472l.27-.046v.925c0 .554.034.925.083.925.045 0 .332-.264.638-.585 1.234-1.296 2.768-1.592 4.349-.838.618.294 1.706 1.379 2.136 2.129 1.794 3.128 1.607 7.614-.43 10.324-1.023 1.36-2.387 2.068-3.854 1.997-1.037-.049-1.563-.276-2.293-.991-.32-.313-.596-.569-.613-.569-.017 0-.017 1.019 0 2.265.029 2.169.038 2.279.22 2.624.21.398.675.664 1.294.74.187.023.383.095.435.16.11.137.059.42-.082.458-.053.015-1.959.017-4.235.005Zm5.095-6.492c.77-.552 1.014-1.807 1.015-5.244.001-2.83-.168-4.12-.653-4.965-.249-.434-.607-.632-1.152-.638-.789-.009-1.318.433-1.72 1.436-.183.458-.188.554-.215 4.143-.032 4.146-.063 3.916.628 4.684.698.777 1.511 1.003 2.097.584Zm31.37 6.42c-1.635-.169-2.967-.487-3.785-.902-.442-.225-.96-.675-1.172-1.017-.153-.248-.19-.427-.189-.894.004-.915.28-1.283 1.371-1.833.64-.322.755-.446.535-.573-.605-.351-1.134-1.046-1.287-1.691-.195-.824.121-1.852.712-2.316.363-.285 1.052-.61 1.293-.61.224 0 .304-.258.114-.369-.083-.049-.38-.267-.659-.485-1.925-1.508-2.457-3.556-1.473-5.67.62-1.332 2.202-2.553 3.874-2.992 1.277-.335 3.005-.294 4.155.098.653.222.714.227 3.241.272l2.576.046v1.33l-1.436.042-1.437.041.475.748c.755 1.19.964 1.713 1.01 2.524.077 1.371-.312 2.35-1.346 3.384-.55.55-.817.744-1.462 1.06-1.518.745-2.278.835-5.784.68-1.592-.07-1.778-.032-1.778.364 0 .469-.077.46 4.396.51 4.012.046 4.137.053 4.703.239.896.294 1.462.615 1.883 1.065.524.56.643.822.75 1.651.339 2.625-1.55 4.555-5.04 5.151-.723.124-3.53.222-4.24.148Zm4.472-1.308c.883-.267 1.296-.47 1.638-.803.615-.602.66-1.55.091-1.97-.672-.497-1.744-.627-4.86-.588l-2.422.03-.425.222c-1.373.72-1.236 2.094.28 2.817.932.445 1.753.573 3.469.541 1.334-.024 1.575-.051 2.229-.249ZM92.53 19.69c.884-.436 1.26-1.677 1.262-4.176.002-2.297-.41-3.464-1.38-3.914-1.08-.5-2.049.2-2.491 1.8-.186.67-.265 2.95-.133 3.848.199 1.36.592 2.116 1.283 2.465.481.244.93.237 1.459-.023ZM5.907 25.316c-1.559-.155-2.852-.759-3.96-1.85C.816 22.354.216 21.014.04 19.203c-.461-4.72 3.058-8.842 7.547-8.842 1.727 0 3.294.62 4.415 1.744.895.897 1.244 1.93 1.016 2.998-.139.647-.433 1.026-1.028 1.323-.694.347-1.257.345-1.958-.005-.87-.435-1.194-1.08-1.39-2.762-.196-1.704-.416-2.01-1.44-2.01-.448 0-.619.042-.936.228-.765.45-1.337 1.358-1.656 2.628-.152.604-.17.868-.137 1.995.04 1.369.169 2.045.59 3.087.693 1.716 2.002 2.953 3.438 3.248.452.093.596.088 1.122-.038.695-.167 1.467-.567 2.119-1.098.249-.203.501-.369.56-.369.14 0 .376.362.376.575 0 .328-1.26 1.671-2.134 2.272-1.36.937-2.89 1.312-4.638 1.139Zm17.428-.002c-.954-.132-1.917-.875-2.23-1.722-.234-.635-.25-.64-.727-.236-.579.49-1.753 1.25-2.304 1.493-1.469.646-2.722.586-3.842-.184-1.297-.892-1.597-2.978-.67-4.652.356-.642 1.303-1.616 2.134-2.195 1.232-.858 3.669-2.074 4.892-2.44.597-.18.604-.198.55-1.528-.052-1.237-.226-1.654-.849-2.034-.387-.236-.458-.25-1.288-.25-.812 0-.911.018-1.309.238-.497.276-.836.795-.748 1.146.03.115.24.462.468.771.228.31.44.692.469.85.229 1.218-.98 2.268-2.5 2.17-1.368-.087-2.04-1.007-1.87-2.558.177-1.616 1.676-2.91 4.156-3.588.635-.173.876-.192 2.45-.188 1.541.003 1.822.025 2.41.189 1.64.456 2.568 1.199 2.975 2.38.054.157.105 2.035.135 4.947.045 4.477.055 4.71.213 5.028.15.299.201.335.514.357.305.023.37-.005.535-.228.215-.29.402-.321.603-.1.185.205.095.425-.405.988-.942 1.063-2.299 1.548-3.762 1.346Zm-3.495-2.692c.26-.128.605-.343.769-.477l.297-.245v-2.861c0-1.574-.02-2.86-.044-2.86-.295 0-1.423.735-2.021 1.317-1.174 1.143-1.763 2.914-1.394 4.185.336 1.154 1.24 1.51 2.393.941Zm54.914 2.703a2.91 2.91 0 0 1-1.61-.753c-.375-.346-.8-1.061-.8-1.347 0-.257-.21-.169-.989.417-.815.612-1.938 1.234-2.668 1.478-.31.104-.697.152-1.204.151-.662-.001-.811-.03-1.288-.257-.727-.344-1.161-.741-1.498-1.372-.248-.462-.286-.616-.316-1.282-.066-1.478.293-2.35 1.433-3.484.415-.413 1.035-.934 1.378-1.158 1.057-.692 2.786-1.586 3.933-2.034.602-.235 1.15-.459 1.219-.496.1-.056.124-.267.12-1.106-.006-1.242-.133-1.665-.629-2.09-.436-.373-.914-.498-1.729-.45-.782.045-1.359.3-1.647.727-.3.444-.249.744.236 1.384.484.64.574.838.574 1.258 0 .99-1.097 1.851-2.35 1.847-.953-.003-1.786-.578-2.023-1.394-.62-2.134 1.346-4.198 4.64-4.872.86-.176 2.887-.175 3.817 0 1.833.348 3.058 1.196 3.45 2.387.125.38.148 1.003.189 5.127.043 4.31.06 4.718.196 4.969.155.283.498.477.668.377.053-.032.25-.181.437-.332l.34-.275.19.202c.228.243.214.288-.275.888-.935 1.148-2.321 1.692-3.794 1.49Zm-3.473-2.742c.288-.15.625-.368.751-.487l.229-.215v-5.714l-.187.056c-.583.173-1.772 1.055-2.264 1.677-.95 1.202-1.336 2.682-.996 3.827.342 1.15 1.278 1.474 2.468.856Zm-41.193 2.571-3.407-.043-.026-.27c-.02-.218.005-.27.13-.27.273 0 .898-.461 1.046-.772.077-.163.177-.49.223-.729.117-.619.108-10.076-.01-10.503-.12-.43-.543-.847-.934-.92-.337-.064-.51-.282-.428-.541.05-.158.145-.163 3.086-.163H32.8l-.013.976c-.007.537-.01 1.048-.006 1.134.005.115.181-.021.651-.503.76-.779 1.474-1.284 2.246-1.585.483-.189.683-.219 1.473-.219.731 0 1 .034 1.347.172.983.392 1.742 1.23 2.108 2.33.095.286.202.52.238.52.035 0 .275-.274.532-.61 1.25-1.633 2.505-2.381 3.99-2.381 1.565 0 2.786.74 3.516 2.13.52.99.605 1.903.607 6.48.001 2.053.038 3.774.086 4.03.108.578.295.821.753.982.204.072.417.16.473.198.135.088.133.555-.001.56-.097.003-7.016.001-7.141-.003-.031 0-.08-.075-.108-.164-.072-.226.094-.502.3-.502.327 0 .707-.25.857-.564.225-.47.31-2.445.275-6.416-.022-2.425-.061-3.54-.133-3.758-.147-.447-.475-.795-.853-.909-.802-.24-1.812.47-2.566 1.802l-.375.66-.025 3.197c-.026 3.313.055 4.981.262 5.381.163.315.369.484.736.602.17.054.329.165.355.248.05.156-.02.42-.11.424l-3.503.007-3.448.005-.026-.294c-.024-.278-.003-.305.374-.485.32-.153.44-.274.607-.606l.208-.416v-4.778c0-4.736-.002-4.782-.181-5.17-.509-1.102-1.772-.894-2.871.473-.792.984-.743.616-.714 5.42.026 4.026.034 4.237.193 4.554.127.254.27.381.605.54.498.235.654.525.389.72a.465.465 0 0 1-.283.091c-.071-.01-1.663-.038-3.537-.062Zm48.06-.161c-.111-.29-.051-.377.442-.642.321-.173.498-.339.65-.611l.209-.374.025-5.027c.014-2.765.002-5.188-.026-5.384-.09-.614-.592-1.03-1.465-1.216-.16-.034-.227-.108-.251-.276-.08-.557-.306-.52 3.177-.52h3.152v5.937c0 4.044.03 6.075.092 6.369.124.577.477.955 1.071 1.148.414.135.46.173.483.411.018.176-.015.279-.1.311-.07.027-1.759.055-3.755.062l-3.628.013-.077-.201Zm21.863.122c-.219-.219-.004-.625.395-.746.294-.09.517-.55.611-1.263.054-.41.077-2.454.062-5.474-.024-4.704-.029-4.827-.199-5.15-.12-.23-.318-.417-.644-.607-.446-.26-.47-.291-.47-.604v-.33l5.942.043v.949c0 .603.032.959.089.978.049.017.284-.192.521-.465.561-.645 1.62-1.439 2.23-1.671.315-.12.744-.198 1.231-.224 2.002-.108 3.329.778 4.003 2.671.361 1.015.38 1.267.433 5.781.051 4.3.054 4.368.236 4.708.194.362.548.694.741.694.079 0 .114.113.114.374v.374l-3.241.015a646 646 0 0 0-3.428.02c-.161.005-.191-.042-.212-.338-.024-.329-.009-.354.328-.54.194-.108.43-.327.524-.487.166-.284.17-.4.17-5.235 0-4.78-.005-4.955-.166-5.271-.092-.18-.265-.4-.386-.488-.274-.2-.93-.22-1.276-.04-.429.226-1.037.817-1.462 1.421l-.408.581v4.127c0 3.397.022 4.2.123 4.54.129.435.417.766.833.958.19.088.255.178.275.385.017.172-.015.286-.088.314-.214.082-6.799.082-6.881 0ZM81.086 10.458c-.594-.212-1.007-.56-1.302-1.1-.207-.38-.246-.543-.244-1.033.002-.924.408-1.643 1.185-2.1.334-.196.475-.226 1.05-.225.789.002 1.154.16 1.675.725.832.903.801 2.363-.068 3.196-.609.584-1.548.803-2.296.537Zm26.247-6.048h.771v3.347c0 .357-.084.672-.251.948a1.76 1.76 0 0 1-.706.646 2.308 2.308 0 0 1-1.067.234c-.406 0-.76-.078-1.064-.234a1.76 1.76 0 0 1-.706-.646 1.789 1.789 0 0 1-.251-.948V4.41h.768v3.286c0 .23.051.435.152.614.103.18.248.32.435.423.187.101.409.152.666.152.259 0 .482-.051.669-.152.189-.103.333-.244.432-.423.102-.179.152-.383.152-.614V4.41Zm4.664 1.336a.725.725 0 0 0-.328-.546c-.192-.131-.434-.197-.726-.197-.209 0-.389.033-.542.1a.832.832 0 0 0-.355.268.633.633 0 0 0-.125.385.57.57 0 0 0 .085.314.756.756 0 0 0 .226.22c.095.059.196.108.303.147.108.039.212.07.311.095l.497.13c.163.039.329.093.5.16.171.069.329.158.475.27a1.197 1.197 0 0 1 .489 1.002c0 .287-.074.543-.223.767-.148.224-.362.4-.644.53-.28.129-.619.194-1.017.194-.381 0-.711-.061-.989-.182a1.524 1.524 0 0 1-.654-.515 1.499 1.499 0 0 1-.261-.795h.771a.784.784 0 0 0 .179.46.966.966 0 0 0 .405.27c.166.059.347.088.544.088.217 0 .41-.034.579-.102a.97.97 0 0 0 .403-.288.682.682 0 0 0 .147-.435.535.535 0 0 0-.129-.37.96.96 0 0 0-.346-.24 3.346 3.346 0 0 0-.49-.166l-.601-.164c-.408-.111-.731-.274-.97-.49-.237-.215-.355-.5-.355-.855 0-.293.079-.55.238-.768.16-.219.375-.389.647-.51a2.21 2.21 0 0 1 .919-.184c.345 0 .649.061.913.182.265.12.474.287.626.5.153.21.232.452.239.725h-.741Z"/></svg>