<svg xmlns="http://www.w3.org/2000/svg" viewBox="0 0 367 209" style="fill:#252422"><path d="M-.252 114.781v16.312c126.218-7.506 32.35-11.405 0-16.312zm0 26.952v16.018l1.055.264c96.158-8.875 68.557-12.11-1.055-16.282z"/><path d="M-.252-.157v52.67c79.138-2.676 79.529-7.162 38.488-12.6l7.382-8.963c50.67 7.776 47.457 20.512 11.072 26.89 12.192 4.287 55.407 12.233 3.163 27.943 8.502 2.31 56.446 14.178-3.163 24.78 9.444 4.265 59.556 10.382 2.108 25.835 14.875 2.443 53.1 10.592 2.637 26.889 19.078 1.996 21.235 2.658 26.361 11.6v34.27h23.198V-.157H-.252z"/><path d="M-.252 90.001v16.345c23.742-4.67 132.112-6.565 0-16.345zm0-27.856v17.312c74.191-3.991 99.257-9.16 0-17.312zm138.494-6.488h-12.658v-2.489h28.012v2.489h-12.655V89.48h-2.699V55.657zm22.203-2.489h2.698v16.808h23.24V53.168h2.698V89.48h-2.698V72.464h-23.24V89.48h-2.698V53.168zm38.076 0h25.833v2.489h-23.135v14.266h20.801v2.491h-20.801v14.577h23.395v2.489H198.52l.001-36.312zm-71.06 57.184h12.05l7.174 23.809 7.936-23.924h9.818l7.933 23.924 7.174-23.809h11.817l-13.756 41.445h-9.936l-8.231-23.689-8.288 23.689h-9.936l-13.755-41.445zm63.903 20.234v-.156c0-12.367 8.846-22.152 21.372-22.152 14.561 0 21.291 10.725 21.291 23.17 0 .939 0 2.035-.077 3.055h-28.337c1.173 4.617 4.54 6.965 9.156 6.965 3.604 0 6.343-1.33 9.396-4.305l8.217 6.811c-4.069 5.164-9.939 8.609-18.315 8.609-13.306-.001-22.703-8.923-22.703-21.997zm28.806-3.678c-.547-4.699-3.363-7.674-7.434-7.674-3.917 0-6.575 2.975-7.359 7.674h14.793zm21.946-16.556h21.105c5.174 0 8.818 1.293 11.229 3.646 1.645 1.703 2.645 3.879 2.645 6.701v.117c0 4.762-2.705 7.584-6.35 9.172 4.999 1.645 8.174 4.467 8.174 10.053v.115c0 7.057-5.762 11.348-15.58 11.348h-21.224l.001-41.152zm23.75 12.699c0-2.293-1.82-3.527-5.171-3.527h-7.468v7.23h7.174c3.469 0 5.465-1.176 5.465-3.586v-.117zm-3.938 11.697h-8.7v7.584h8.818c3.526 0 5.469-1.352 5.469-3.762v-.117c0-2.234-1.768-3.705-5.587-3.705zm25.783-24.396h21.105c5.174 0 8.818 1.293 11.229 3.646 1.645 1.703 2.645 3.879 2.645 6.701v.117c0 4.762-2.705 7.584-6.35 9.172 4.999 1.645 8.17 4.467 8.17 10.053v.115c0 7.057-5.759 11.348-15.576 11.348H287.71l.001-41.152zm23.75 12.699c0-2.293-1.82-3.527-5.171-3.527h-7.468v7.23h7.174c3.465 0 5.465-1.176 5.465-3.586v-.117zm-3.939 11.697h-8.7v7.584h8.818c3.526 0 5.468-1.352 5.468-3.762v-.117c0-2.234-1.762-3.705-5.586-3.705zm32.685 1.354-15.696-25.75h12.994l8.464 14.99 8.524-14.99h12.76l-15.643 25.574v15.578h-11.402l-.001-15.402zM146.081 169.09h2.594l16.91 36.572h-2.955l-4.617-10.168h-21.426l-4.617 10.168h-2.8l16.911-36.572zm10.791 23.965-9.544-21.008-9.599 21.008h19.143zm8.503-23.705h3.009l11.412 32.318 10.636-32.424h2.073l10.637 32.424 11.412-32.318h2.8l-13.175 36.572H202l-10.636-31.541-10.635 31.541h-2.179l-13.175-36.572zm69.561-.233h2.594l16.91 36.57h-2.955l-4.617-10.166h-21.426l-4.617 10.166h-2.8l16.911-36.57zm10.791 23.965-9.544-21.008-9.599 21.008h19.143zm14.955-23.732h15.252c4.462 0 8.042 1.4 10.221 3.578 1.712 1.713 2.749 4.15 2.749 6.744v.104c0 6.068-4.513 9.547-10.636 10.375l11.983 15.512h-3.425l-11.567-15.043H263.38v15.043h-2.698V169.35zm14.94 18.83c6.069 0 10.581-3.061 10.581-8.299v-.105c0-4.875-3.836-7.938-10.426-7.938h-12.398v16.342h12.243zm21.306-18.83h12.088c11.412 0 19.298 7.832 19.298 18.053v.102c0 10.221-7.886 18.158-19.298 18.158h-12.088V169.35zm2.698 2.488v31.334h9.39c10.115 0 16.495-6.9 16.495-15.562v-.105c0-8.609-6.38-15.666-16.495-15.666h-9.39v-.001zm33.664 28.533 1.764-2.023c3.998 3.684 7.68 5.394 13.022 5.394 5.444 0 9.18-3.06 9.18-7.209v-.105c0-3.838-2.02-6.068-10.267-7.729-8.714-1.764-12.247-4.721-12.247-10.221v-.104c0-5.395 4.932-9.543 11.673-9.543 5.295 0 8.768 1.451 12.449 4.408l-1.709 2.127c-3.425-2.957-6.85-4.1-10.842-4.1-5.343 0-8.869 3.062-8.869 6.848v.105c0 3.838 1.973 6.172 10.578 7.936 8.402 1.711 11.936 4.721 11.936 10.012v.104c0 5.861-5.032 9.908-12.037 9.908-5.809.001-10.274-1.917-14.631-5.808z"/></svg>